P1
#Este é apenas um comentário
7 5
0 0 0 0 0 1 1
0 1 0 0 0 1 1
0 1 1 1 1 1 1
0 1 0 1 0 0 0
0 0 0 1 0 0 0